<svg xmlns="http://www.w3.org/2000/svg" viewBox="0 0 14 14" width="14" height="14">
    <path fill-rule="evenodd" d="M1.9 11.1C0.68 9.88 0 8.22 0 6.5C0 4.78 0.68 3.12 1.9 1.9C3.12 0.68 4.78 0 6.5 0C8.22 0 9.88 0.68 11.1 1.9C12.32 3.12 13 4.78 13 6.5C13 8.22 12.32 9.88 11.1 11.1C9.88 12.32 8.22 13 6.5 13C4.78 13 3.12 12.32 1.9 11.1ZM6.5 1C5.78 1 5.06 1.14 4.4 1.42C3.73 1.7 3.12 2.1 2.61 2.61C2.1 3.12 1.7 3.73 1.42 4.4C1.14 5.06 1 5.78 1 6.5C1 9.53 3.47 12 6.5 12C9.53 12 12 9.53 12 6.5C12 3.47 9.53 1 6.5 1ZM6 6.71L6 2.5L7 2.5L7 6.29L8.85 8.15L8.15 8.85L6 6.71Z"/>
</svg>
