<svg xmlns="http://www.w3.org/2000/svg" viewBox="0 0 18 13" width="18" height="13">
    <path fill-rule="evenodd" d="M13.3 4.42L8.76 4.42C7.35 4.42 6.13 5.25 5.52 6.44L6.7 6.44C7.19 5.83 7.93 5.43 8.76 5.43L11.74 5.43C11.43 6.59 10.4 7.45 9.16 7.45L4.62 7.45C3.14 7.45 1.94 6.22 1.94 4.71C1.94 3.2 3.14 1.97 4.62 1.97L9.16 1.97C10.14 1.97 11.05 2.53 11.52 3.41L12.59 3.41C12.55 3.31 12.53 3.21 12.49 3.11C11.88 1.8 10.58 0.96 9.16 0.96L4.62 0.96C2.6 0.95 0.95 2.64 0.95 4.71C0.95 6.78 2.6 8.46 4.62 8.46L9.16 8.46C10.95 8.46 12.43 7.16 12.77 5.43L13.3 5.43C14.78 5.43 15.98 6.66 15.98 8.18C15.98 9.69 14.78 10.92 13.3 10.92L8.76 10.92C7.74 10.92 6.86 10.33 6.41 9.48L5.32 9.48C5.84 10.9 7.18 11.93 8.76 11.93L13.3 11.93C15.32 11.93 16.97 10.25 16.97 8.18C16.97 6.11 15.32 4.42 13.3 4.42L13.3 4.42Z"/>
</svg>
